<svg xmlns="http://www.w3.org/2000/svg" fill="none" viewBox="0 0 150 39"><path fill="#000" d="M145.867 11.555q-1.085 0-1.922-.47-.835-.476-1.312-1.444-.477-.969-.477-2.407 0-1.289.477-2.257.484-.976 1.328-1.5a3.5 3.5 0 0 1 1.906-.532q1.047 0 1.836.485.789.484 1.219 1.422.438.93.437 2.25v.484h-6.468V6.43h5.648l-.703.383q0-.891-.234-1.485-.227-.594-.672-.883-.438-.288-1.078-.289-.65 0-1.149.344-.5.345-.789 1.016-.28.672-.281 1.617v.086q0 1.038.281 1.734t.805 1.04q.523.342 1.25.343.757 0 1.258-.445.507-.453.625-1.282h1.46a3.4 3.4 0 0 1-.531 1.54q-.437.664-1.187 1.039-.743.366-1.727.367m-8.969-8.383h1.422v1.96l-.109-.046q.125-.625.461-1.094.343-.468.883-.726a2.84 2.84 0 0 1 1.609-.227v1.438a2.7 2.7 0 0 0-.586-.062q-.718 0-1.219.288a1.87 1.87 0 0 0-.765.867q-.258.57-.258 1.422v4.336h-1.438zm-5.39 8.383q-1.086 0-1.922-.47-.836-.476-1.313-1.444-.476-.969-.476-2.407 0-1.289.476-2.257.484-.976 1.329-1.5a3.5 3.5 0 0 1 1.906-.532q1.047 0 1.836.485.789.484 1.218 1.422.438.93.438 2.25v.484h-6.469V6.43h5.649l-.703.383q0-.891-.235-1.485-.227-.594-.672-.883-.437-.288-1.078-.289-.648 0-1.148.344-.501.345-.789 1.016-.282.672-.282 1.617v.086q0 1.038.282 1.734.28.696.804 1.04.524.342 1.25.343.759 0 1.258-.445.508-.453.625-1.282h1.461a3.4 3.4 0 0 1-.531 1.54q-.438.664-1.188 1.039-.742.366-1.726.367M119.477.125h1.437v5.54l-.211-.61q.148-.65.508-1.125a2.4 2.4 0 0 1 .93-.727 3 3 0 0 1 1.281-.258q.804 0 1.383.336.585.336.89.953.305.61.305 1.43v5.664h-1.438V5.82q0-.804-.398-1.234-.39-.43-1.156-.43-.617 0-1.094.305-.468.305-.734.914-.266.602-.266 1.46v4.493h-1.437zm-8.954 11.43q-1.086 0-1.921-.47-.837-.476-1.313-1.444-.477-.969-.477-2.407 0-1.289.477-2.257.485-.976 1.328-1.5a3.5 3.5 0 0 1 1.906-.532q1.047 0 1.836.485.79.484 1.219 1.422.438.93.438 2.25v.484h-6.469V6.43h5.648l-.703.383q0-.891-.234-1.485-.226-.594-.672-.883-.438-.288-1.078-.289-.648 0-1.149.344-.5.345-.789 1.016-.28.672-.281 1.617v.086q0 1.038.281 1.734t.805 1.04 1.25.343q.757 0 1.258-.445.507-.453.625-1.282h1.461a3.4 3.4 0 0 1-.531 1.54q-.438.664-1.188 1.039-.742.366-1.727.367m-12-8.383h1.532l2.304 6.734h-.273l2.258-6.734h1.461l-2.961 8.156h-1.328zm-2.89 0h1.437v8.156h-1.437zm.719-1.25a1 1 0 0 1-.485-.125 1 1 0 0 1-.351-.352.99.99 0 0 1 0-.96.95.95 0 0 1 .351-.352.94.94 0 0 1 .961 0q.226.124.352.351a.94.94 0 0 1 0 .96.95.95 0 0 1-.828.478M91.867.125h1.438v11.203h-1.438zm-7.327 0h1.437v11.203h-1.438zm-3.767 0h1.438v11.203h-1.438zm-3.765 3.047h1.437v8.156h-1.437zm.719-1.25a1 1 0 0 1-.485-.125 1 1 0 0 1-.351-.352.99.99 0 0 1 0-.96.95.95 0 0 1 .351-.352.94.94 0 0 1 .961 0q.226.124.352.351a.94.94 0 0 1 0 .96.95.95 0 0 1-.828.478M64.07 3.172h1.47l1.968 7.148h-.61l2.133-7.148h1.61l2.086 7.148h-.54l1.915-7.148h1.375l-2.391 8.156h-1.352l-2.226-7.71h.656l-2.336 7.71h-1.36zm-7.78 8.383a2.9 2.9 0 0 1-1.204-.25q-.54-.25-.93-.758-.382-.508-.57-1.266l.312.32v1.727h-1.39V3.172h1.437v1.82l-.343.227q.164-.71.554-1.219a2.55 2.55 0 0 1 .953-.781q.57-.274 1.243-.274 1.039 0 1.78.532.75.524 1.141 1.5.39.968.391 2.273 0 1.297-.406 2.273-.407.969-1.172 1.5-.766.532-1.797.532m-.212-1.22q.672 0 1.14-.382.47-.39.704-1.078.234-.696.234-1.61 0-.913-.234-1.609-.234-.703-.703-1.093-.47-.399-1.14-.399-.673 0-1.157.399-.477.39-.727 1.093-.242.696-.242 1.61 0 .906.242 1.601.251.696.727 1.086.484.383 1.156.383m-3.57-.67h1.437v4.546h-1.437zm-5.249 1.889q-.657 0-1.203-.25-.54-.25-.93-.758-.383-.508-.57-1.266l.312.32v1.727h-1.39V3.172h1.437v1.82l-.344.227q.165-.71.555-1.219a2.55 2.55 0 0 1 .953-.781q.57-.274 1.242-.274 1.04 0 1.782.532.75.524 1.14 1.5.39.968.39 2.273 0 1.297-.405 2.273-.407.969-1.172 1.5-.766.532-1.797.532m-.211-1.22q.672 0 1.14-.382.469-.39.704-1.078.234-.696.234-1.61 0-.913-.234-1.609-.235-.703-.703-1.093-.47-.399-1.141-.399-.672 0-1.156.399-.477.39-.727 1.093-.242.696-.242 1.61 0 .906.242 1.601.25.696.727 1.086.484.383 1.156.383m-3.57-.67h1.437v4.546h-1.437zm-6.243 1.889a3.15 3.15 0 0 1-1.367-.29 2.33 2.33 0 0 1-.96-.843q-.344-.548-.344-1.274 0-1.116.671-1.734.68-.625 1.899-.82l1.297-.211q.5-.086.78-.188a.94.94 0 0 0 .415-.28q.133-.18.133-.478 0-.327-.18-.625a1.3 1.3 0 0 0-.555-.484q-.375-.187-.93-.187-.78 0-1.273.414-.485.406-.53 1.125h-1.51q.023-.781.446-1.399a2.83 2.83 0 0 1 1.164-.976q.741-.36 1.703-.36.975 0 1.68.352.702.343 1.07 1.008.375.663.375 1.586v3.547q0 .57.078 1.054.086.477.242.61v.226h-1.523a6 6 0 0 1-.157-.781 7 7 0 0 1-.054-.883l.258.078a2.6 2.6 0 0 1-.594.922q-.407.414-.985.656a3.3 3.3 0 0 1-1.25.235m.32-1.203q.681 0 1.188-.305a2.06 2.06 0 0 0 .774-.836 2.54 2.54 0 0 0 .273-1.18V6.812l.164.024a1.6 1.6 0 0 1-.578.406q-.345.15-.93.266l-.86.172q-.788.164-1.155.5-.367.328-.367.922 0 .57.421.914.43.336 1.07.336m-11.389-7.18h1.422v1.96l-.11-.046a2.8 2.8 0 0 1 .462-1.094q.343-.468.882-.726a2.85 2.85 0 0 1 1.61-.227v1.438a2.7 2.7 0 0 0-.586-.062q-.72 0-1.219.288a1.87 1.87 0 0 0-.766.867q-.258.57-.257 1.422v4.336h-1.438zm-6.195 8.383q-.828 0-1.43-.32a2.2 2.2 0 0 1-.914-.93q-.312-.61-.312-1.47V3.173h1.437v5.5q0 .79.414 1.226.414.438 1.203.438a1.9 1.9 0 0 0 1.055-.297q.46-.297.719-.875.258-.586.257-1.422v-4.57h1.438v8.156H22.43V8.836l.242.601q-.18.65-.555 1.126-.368.476-.914.734a2.9 2.9 0 0 1-1.234.258m-8.102 0q-1.094 0-1.922-.532-.828-.53-1.28-1.507-.447-.977-.446-2.274 0-1.297.445-2.265.454-.976 1.281-1.5.828-.532 1.922-.532 1.095 0 1.922.532.828.524 1.274 1.5.453.968.453 2.265t-.453 2.274q-.446.975-1.274 1.507t-1.922.532m0-1.22q.671 0 1.149-.358.483-.368.734-1.063.258-.694.258-1.672 0-1.469-.563-2.273-.562-.805-1.578-.805-.672 0-1.156.36-.477.358-.734 1.054-.25.687-.25 1.664t.25 1.672q.257.696.734 1.063.484.36 1.156.359M3.39 6.18l.32 1.36L0 .124h1.648L4.414 6h-.547L6.703.125h1.563L4.539 7.539l.32-1.36v5.15H3.391zm136.8 32.285q-.601 0-1.025-.185a1.4 1.4 0 0 1-.663-.601q-.232-.425-.232-1.1v-4.355h-1.258V31.19h.123q.465 0 .745-.143a.93.93 0 0 0 .431-.444q.143-.302.17-.8l.041-.704h1.005v2.2l-.15-.109h1.723v1.033h-1.573v4.272q0 .486.24.69.246.206.683.206.28 0 .52-.055v1.032a3 3 0 0 1-.78.096m-5.714-7.273h1.257v7.137h-1.257zm.628-1.093a.86.86 0 0 1-.423-.11.9.9 0 0 1-.308-.307.86.86 0 0 1 0-.841.83.83 0 0 1 .308-.308.82.82 0 0 1 .84 0 .77.77 0 0 1 .308.308.82.82 0 0 1 0 .84.83.83 0 0 1-.725.418m-7.047-1.573h1.257v2.666h-1.257zm-2.092 10.001q-.916 0-1.572-.458-.657-.465-.998-1.305-.342-.847-.342-1.99 0-1.135.355-1.989.363-.855 1.032-1.32.67-.47 1.566-.47.574 0 1.046.218.479.219.813.663.342.444.506 1.107l-.314-.28v-1.51h1.257v7.136h-1.216v-1.593l.259-.198q-.218.936-.861 1.463-.642.526-1.531.526m.225-1.066q.588 0 1.005-.342.424-.348.636-.957a4.2 4.2 0 0 0 .219-1.415q0-.794-.219-1.401-.212-.608-.636-.944a1.53 1.53 0 0 0-1.005-.341 1.5 1.5 0 0 0-.998.341q-.41.335-.615.944-.205.6-.205 1.401 0 .8.205 1.415.206.609.615.957.411.342.998.342m-6.029-8.935h1.258v9.803h-1.258zm-3.295 2.666h1.258v7.137h-1.258zm.629-1.093a.9.9 0 0 1-.424-.11.9.9 0 0 1-.307-.307.86.86 0 0 1 0-.841.83.83 0 0 1 .307-.308.83.83 0 0 1 .841 0 .77.77 0 0 1 .308.308.8.8 0 0 1 .116.417q0 .225-.116.424a.83.83 0 0 1-.725.417m-6.05 8.428q-.725 0-1.251-.28a1.9 1.9 0 0 1-.799-.813q-.274-.534-.274-1.285V31.19h1.258v4.813q0 .69.362 1.073.363.383 1.053.383.526 0 .923-.26.403-.26.629-.765.225-.513.225-1.245V31.19h1.258v7.137h-1.23v-2.18l.212.526a2.8 2.8 0 0 1-.486.984 2.15 2.15 0 0 1-.8.643q-.478.225-1.08.225m-6.856.001q-.575 0-1.053-.218a2.2 2.2 0 0 1-.813-.663q-.336-.445-.499-1.108l.273.28v1.511h-1.217v-7.137h1.258v1.593l-.301.198q.144-.622.486-1.066.342-.45.834-.684a2.5 2.5 0 0 1 1.087-.239q.909 0 1.558.465.657.458.998 1.313.342.847.342 1.989 0 1.135-.355 1.989-.355.848-1.026 1.313-.67.465-1.572.464m-.185-1.066q.588 0 .998-.335.41-.342.616-.943.204-.608.205-1.409 0-.8-.205-1.408-.205-.615-.616-.957a1.5 1.5 0 0 0-.998-.348q-.588 0-1.011.348-.417.342-.636.957-.212.609-.212 1.408 0 .794.212 1.402.219.608.636.95.423.335 1.011.335m-3.124-8.935h1.258v2.666h-1.258zm-7.943 10.001q-.957 0-1.682-.465-.724-.465-1.12-1.319-.39-.855-.39-1.99 0-1.133.39-1.982.396-.855 1.12-1.312.725-.465 1.682-.465.956 0 1.682.465.724.458 1.114 1.313.396.847.396 1.982t-.396 1.99q-.39.854-1.114 1.319t-1.682.464m0-1.066q.588 0 1.005-.315.423-.321.642-.93.225-.607.226-1.462 0-1.285-.492-1.99-.493-.703-1.381-.703-.589 0-1.012.314-.417.315-.642.923-.22.6-.22 1.456 0 .855.22 1.463.225.608.642.93.424.315 1.012.314m-5.004 1.005q-.602 0-1.025-.185a1.4 1.4 0 0 1-.664-.601q-.232-.425-.232-1.1v-4.355h-1.258V31.19h.123q.465 0 .745-.143a.93.93 0 0 0 .431-.444q.144-.302.171-.8l.041-.704h1.005v2.2l-.15-.109h1.722v1.033H87.67v4.272q0 .486.24.69.245.206.683.206.28 0 .52-.055v1.032a3 3 0 0 1-.78.096m-10.253.062q-.951 0-1.683-.41-.73-.417-1.148-1.264-.417-.848-.417-2.106 0-1.127.417-1.976.424-.855 1.162-1.312a3.07 3.07 0 0 1 1.668-.465q.915 0 1.607.424.69.423 1.066 1.244.383.813.383 1.969v.424h-5.66v-1.012h4.942l-.615.335q0-.78-.205-1.299-.198-.52-.588-.772-.383-.253-.944-.253-.567 0-1.004.3-.438.301-.69.89-.247.587-.247 1.414v.075q0 .91.246 1.518.246.609.704.91.459.3 1.094.3.663 0 1.1-.39.446-.396.547-1.12h1.279q-.082.764-.465 1.346a2.6 2.6 0 0 1-1.04.91q-.649.32-1.51.32M71.94 28.525h1.258v9.803H71.94zm-4.593 10.001q-.575 0-1.053-.218a2.2 2.2 0 0 1-.813-.663q-.336-.445-.5-1.108l.274.28v1.511h-1.217v-7.137h1.258v1.593l-.3.198a2.7 2.7 0 0 1 .485-1.066q.34-.45.834-.684a2.5 2.5 0 0 1 1.086-.239q.91 0 1.559.465.656.458.998 1.313.342.847.342 1.989 0 1.135-.356 1.989-.355.848-1.025 1.313t-1.572.464m-.185-1.066q.588 0 .998-.335.411-.342.615-.943.206-.608.206-1.409 0-.8-.206-1.408-.204-.615-.615-.957a1.5 1.5 0 0 0-.998-.348q-.589 0-1.012.348-.417.342-.635.957-.212.609-.212 1.408 0 .794.212 1.402.218.608.635.95.424.335 1.012.335m-3.124-8.935h1.258v2.666h-1.258zm-5.462 10.001q-.663 0-1.196-.253a2.04 2.04 0 0 1-.84-.738q-.302-.478-.302-1.114 0-.978.588-1.518.595-.546 1.661-.718l1.135-.184q.438-.075.684-.164a.8.8 0 0 0 .362-.246.7.7 0 0 0 .116-.417 1.04 1.04 0 0 0-.157-.547 1.15 1.15 0 0 0-.485-.424q-.329-.164-.814-.164-.684 0-1.114.362-.425.356-.465.985h-1.32q.021-.684.39-1.224.37-.547 1.019-.854.65-.315 1.49-.315.855 0 1.47.308.615.3.936.882.329.581.328 1.387v3.104q0 .499.069.923.074.416.212.533v.198H61.01a5.3 5.3 0 0 1-.185-1.456l.226.068q-.165.445-.52.807a2.6 2.6 0 0 1-.861.574 2.9 2.9 0 0 1-1.094.205m.28-1.052a2 2 0 0 0 1.04-.267q.444-.273.676-.731.24-.465.24-1.033v-1.066l.143.02q-.197.226-.506.356a4.2 4.2 0 0 1-.813.232l-.752.15q-.69.144-1.012.438-.321.287-.321.807 0 .5.369.8.376.294.936.294m-9.679-6.283h1.34l2.016 5.893h-.24l1.977-5.893h1.278l-2.591 7.137h-1.162zm-3.91 7.335q-.957 0-1.682-.465t-1.121-1.319q-.39-.855-.39-1.99 0-1.133.39-1.982.396-.855 1.121-1.312.725-.465 1.682-.465t1.681.465q.725.458 1.114 1.313.397.847.397 1.982t-.397 1.99q-.389.854-1.114 1.319-.724.465-1.681.464m0-1.066q.587 0 1.005-.315.423-.321.642-.93.226-.607.226-1.462 0-1.285-.492-1.99-.493-.703-1.381-.703-.588 0-1.012.314-.417.315-.643.923-.218.6-.218 1.456 0 .855.218 1.463.225.608.643.93.423.315 1.012.314m-9.4-8.935h1.285v9.03l-.218-.389h4.49v1.162h-5.557zm-10.261 0h1.258v6.105h-.335l3.117-3.439h1.6l-4.915 5.305.533-1.094v2.926h-1.258zm2.1 5.968.683-1.19 3.137 5.025h-1.51zm-6.496 4.033q-.928 0-1.62-.3a2.45 2.45 0 0 1-1.059-.869q-.375-.56-.39-1.326h1.32q.028.684.513 1.06.485.369 1.264.369.657 0 1.053-.287a.91.91 0 0 0 .403-.78.75.75 0 0 0-.287-.621q-.28-.226-.916-.356l-1.176-.24q-1.032-.204-1.517-.676-.486-.478-.485-1.237 0-.643.335-1.156.334-.519.963-.813.63-.3 1.484-.3.874 0 1.497.307.622.308.95.854.328.54.355 1.23h-1.291q-.028-.628-.445-.984-.41-.362-1.094-.362-.43 0-.752.137a1.1 1.1 0 0 0-.499.376.9.9 0 0 0-.177.553q0 .356.246.568t.78.314l1.312.253q.656.13 1.107.39.45.252.684.65.24.396.239.922 0 .738-.37 1.265-.36.526-.997.793-.635.266-1.43.266m-8.817-10.001h1.524l3.5 9.803h-1.388l-3.008-8.777h.24l-3.042 8.777h-1.36zM10.82 34.2h4.78v1.149h-4.78z"/></svg>